<?xml version="1.0" encoding="UTF-8"?>
<!DOCTYPE svg PUBLIC "-//W3C//DTD SVG 1.1//EN" "http://www.w3.org/Graphics/SVG/1.1/DTD/svg11.dtd">
<svg xmlns="http://www.w3.org/2000/svg" version="1.1" width="500px" height="293px" style="shape-rendering:geometricPrecision; text-rendering:geometricPrecision; image-rendering:optimizeQuality; fill-rule:evenodd; clip-rule:evenodd" xmlns:xlink="http://www.w3.org/1999/xlink">
<g><path style="opacity:1" fill="#101417" d="M -0.5,-0.5 C 166.167,-0.5 332.833,-0.5 499.5,-0.5C 499.5,97.1667 499.5,194.833 499.5,292.5C 332.833,292.5 166.167,292.5 -0.5,292.5C -0.5,194.833 -0.5,97.1667 -0.5,-0.5 Z"/></g>
<g><path style="opacity:1" fill="#8c2829" d="M 374.5,50.5 C 369.13,50.3921 363.797,50.7255 358.5,51.5C 361.356,49.9942 364.523,49.3275 368,49.5C 370.361,49.5039 372.527,49.8373 374.5,50.5 Z"/></g>
<g><path style="opacity:1" fill="#c33131" d="M 196.5,154.5 C 191.218,153.244 185.885,152.244 180.5,151.5C 174.971,147.113 171.471,141.446 170,134.5C 169.5,118.17 169.333,101.837 169.5,85.5C 170.182,76.3015 171.015,66.9682 172,57.5C 172.333,56.8333 172.667,56.1667 173,55.5C 174,60.8333 175,60.8333 176,55.5C 176.667,56.8333 177.667,57.8333 179,58.5C 178.544,61.4284 178.544,64.4284 179,67.5C 180.051,63.044 180.884,58.544 181.5,54C 181.095,53.0546 180.428,52.3879 179.5,52C 181.134,51.5065 182.801,51.3398 184.5,51.5C 185.387,60.8006 185.721,70.1339 185.5,79.5C 185.5,82.8333 185.5,86.1667 185.5,89.5C 184.029,98.2877 183.362,107.288 183.5,116.5C 183.833,122.167 184.167,127.833 184.5,133.5C 185.182,134.243 185.849,134.909 186.5,135.5C 186.953,136.458 187.619,137.292 188.5,138C 191.227,138.818 193.894,138.652 196.5,137.5C 198.681,133.794 200.181,129.794 201,125.5C 201.038,100.784 201.705,76.1173 203,51.5C 207.409,50.4689 211.909,49.8022 216.5,49.5C 216.844,71.0089 217.511,92.5089 218.5,114C 218.728,125.035 216.561,135.535 212,145.5C 207.811,150.178 202.644,153.178 196.5,154.5 Z"/></g>
<g><path style="opacity:1" fill="#c33131" d="M 248.5,86.5 C 248.33,87.8221 248.663,88.9887 249.5,90C 257.562,94.7275 265.062,100.227 272,106.5C 272.383,105.944 272.883,105.611 273.5,105.5C 280.449,114.81 282.282,125.144 279,136.5C 272.584,153.103 260.751,158.603 243.5,153C 237.089,149.694 232.922,144.528 231,137.5C 230.789,131.782 230.289,126.115 229.5,120.5C 230.309,118.929 230.643,117.262 230.5,115.5C 236.074,113.939 241.407,114.273 246.5,116.5C 246.892,123.624 246.226,130.624 244.5,137.5C 245.487,141.367 244.987,141.367 243,137.5C 242.667,134.833 242.333,132.167 242,129.5C 241.667,131.5 241.333,133.5 241,135.5C 239.629,132.34 238.629,129.006 238,125.5C 235.743,143.245 243.243,150.745 260.5,148C 259.5,147.667 258.5,147.333 257.5,147C 258.094,146.536 258.761,146.369 259.5,146.5C 263.881,145.708 264.214,144.541 260.5,143C 261.833,142 263.167,141 264.5,140C 264.167,139.667 263.833,139.333 263.5,139C 265.617,137.269 267.117,135.102 268,132.5C 268.333,134.5 268.667,136.5 269,138.5C 273.07,131.824 273.237,125.157 269.5,118.5C 272.299,114.767 271.299,111.1 266.5,107.5C 261.728,101.472 255.728,97.139 248.5,94.5C 244.216,90.5336 241.716,85.5336 241,79.5C 240.201,83.4239 239.701,83.4239 239.5,79.5C 240.983,74.9023 242.149,70.2356 243,65.5C 244.5,64 246,62.5 247.5,61C 246.833,60.3333 246.167,60.3333 245.5,61C 239.776,64.9489 237.11,70.4489 237.5,77.5C 238.144,84.6185 240.811,90.7851 245.5,96C 244.5,96.3333 243.5,96.6667 242.5,97C 244.501,99.8396 247.168,101.673 250.5,102.5C 251.298,102.043 251.631,101.376 251.5,100.5C 253.062,100.733 254.395,101.4 255.5,102.5C 255.389,103.117 255.056,103.617 254.5,104C 266.097,111.461 269.264,121.628 264,134.5C 263.241,136.063 262.074,137.063 260.5,137.5C 262.967,130.972 263.134,124.305 261,117.5C 255.58,111.032 249.08,105.865 241.5,102C 231.535,92.5457 228.035,81.0457 231,67.5C 236.401,51.881 247.234,46.381 263.5,51C 278.486,57.9522 282.819,68.9522 276.5,84C 271.975,85.4677 267.475,85.6343 263,84.5C 262.667,79.8333 262.333,75.1667 262,70.5C 258.692,66.6729 254.526,65.5063 249.5,67C 247.112,69.3059 246.112,72.1392 246.5,75.5C 246.754,79.2564 247.421,82.9231 248.5,86.5 Z"/></g>
<g><path style="opacity:1" fill="#c23031" d="M 374.5,50.5 C 382.02,52.5184 387.187,57.1851 390,64.5C 391.602,87.13 391.935,109.797 391,132.5C 387.737,149.903 377.237,157.07 359.5,154C 351.595,150.753 346.428,144.919 344,136.5C 342.387,115.144 342.053,93.8103 343,72.5C 343.836,62.1099 349.003,55.1099 358.5,51.5C 363.797,50.7255 369.13,50.3921 374.5,50.5 Z"/></g>
<g><path style="opacity:1" fill="#9a2a2a" d="M 185.5,79.5 C 185.721,70.1339 185.387,60.8006 184.5,51.5C 182.801,51.3398 181.134,51.5065 179.5,52C 180.428,52.3879 181.095,53.0546 181.5,54C 180.884,58.544 180.051,63.044 179,67.5C 178.544,64.4284 178.544,61.4284 179,58.5C 177.667,57.8333 176.667,56.8333 176,55.5C 175,60.8333 174,60.8333 173,55.5C 172.667,56.1667 172.333,56.8333 172,57.5C 171.015,66.9682 170.182,76.3015 169.5,85.5C 169.334,76.8269 169.5,68.1603 170,59.5C 170.413,56.7679 171.08,54.1013 172,51.5C 176.323,51.1586 180.823,50.8253 185.5,50.5C 186.739,60.3144 186.739,69.981 185.5,79.5 Z"/></g>
<g><path style="opacity:1" fill="#c73131" d="M 291.5,51.5 C 306.167,51.5 320.833,51.5 335.5,51.5C 335.827,56.544 335.494,61.544 334.5,66.5C 329.23,67.4512 323.897,67.7846 318.5,67.5C 318.5,94.5 318.5,121.5 318.5,148.5C 317.292,149.234 315.959,149.567 314.5,149.5C 316.044,140.861 316.377,132.195 315.5,123.5C 314.833,125.167 314.167,126.833 313.5,128.5C 312.501,115.851 312.168,103.184 312.5,90.5C 310.801,82.9745 309.635,75.3079 309,67.5C 308.5,82.4963 308.333,97.4963 308.5,112.5C 308.644,122.349 308.311,132.183 307.5,142C 307.667,144.167 307.833,146.333 308,148.5C 309.016,149.634 309.683,149.301 310,147.5C 310.5,130.837 310.667,114.17 310.5,97.5C 310.328,96.5084 310.662,95.8417 311.5,95.5C 310.846,114.53 311.513,133.197 313.5,151.5C 313.03,152.693 312.03,153.36 310.5,153.5C 308.182,153.003 305.848,152.67 303.5,152.5C 303.5,125.833 303.5,99.1667 303.5,72.5C 304.809,65.9818 302.142,63.1484 295.5,64C 298.146,63.5026 300.813,63.3359 303.5,63.5C 303.5,61.8333 303.5,60.1667 303.5,58.5C 299.901,58.7381 299.567,57.7381 302.5,55.5C 298.893,54.5108 295.226,54.1774 291.5,54.5C 291.5,53.5 291.5,52.5 291.5,51.5 Z"/></g>
<g><path style="opacity:1" fill="#b32e2e" d="M 291.5,51.5 C 291.5,52.5 291.5,53.5 291.5,54.5C 295.226,54.1774 298.893,54.5108 302.5,55.5C 299.567,57.7381 299.901,58.7381 303.5,58.5C 303.5,60.1667 303.5,61.8333 303.5,63.5C 300.813,63.3359 298.146,63.5026 295.5,64C 302.142,63.1484 304.809,65.9818 303.5,72.5C 302.549,71.0813 302.216,69.4147 302.5,67.5C 297.489,67.6659 292.489,67.4993 287.5,67C 285.072,62.7038 284.906,58.2038 287,53.5C 288.11,51.9632 289.61,51.2965 291.5,51.5 Z"/></g>
<g><path style="opacity:1" fill="#882727" d="M 381.5,109.5 C 381.5,113.167 381.5,116.833 381.5,120.5C 380.153,110.184 380.153,97.1843 381.5,81.5C 381.066,76.0898 380.233,70.7564 379,65.5C 377.833,63.6667 376.333,62.1667 374.5,61C 369.757,60.4571 365.09,60.4571 360.5,61C 360.833,60 361.167,59 361.5,58C 368.873,55.4091 375.54,56.5757 381.5,61.5C 382.475,77.3902 382.475,93.3902 381.5,109.5 Z"/></g>
<g><path style="opacity:1" fill="#862627" d="M 374.5,67.5 C 370.6,66.5701 366.6,66.2367 362.5,66.5C 364.102,64.0184 366.435,63.185 369.5,64C 366.879,64.9056 367.046,65.4056 370,65.5C 372.629,63.6297 374.129,64.2963 374.5,67.5 Z"/></g>
<g><path style="opacity:1" fill="#121417" d="M 362.5,66.5 C 366.6,66.2367 370.6,66.5701 374.5,67.5C 374.5,70.5 374.5,73.5 374.5,76.5C 374.5,89.8333 374.5,103.167 374.5,116.5C 374.834,122.994 374.001,129.327 372,135.5C 370.89,137.037 369.39,137.703 367.5,137.5C 365.05,137.702 362.717,137.369 360.5,136.5C 359.545,125.551 359.211,114.551 359.5,103.5C 359.088,94.1601 358.921,84.8268 359,75.5C 358.913,71.9199 360.08,68.9199 362.5,66.5 Z"/></g>
<g><path style="opacity:1" fill="#a92c2c" d="M 248.5,94.5 C 248.217,95.2161 247.884,96.0494 247.5,97C 249.093,97.9487 250.426,99.1154 251.5,100.5C 251.631,101.376 251.298,102.043 250.5,102.5C 247.168,101.673 244.501,99.8396 242.5,97C 243.5,96.6667 244.5,96.3333 245.5,96C 240.811,90.7851 238.144,84.6185 237.5,77.5C 237.11,70.4489 239.776,64.9489 245.5,61C 246.167,60.3333 246.833,60.3333 247.5,61C 246,62.5 244.5,64 243,65.5C 242.149,70.2356 240.983,74.9023 239.5,79.5C 239.701,83.4239 240.201,83.4239 241,79.5C 241.716,85.5336 244.216,90.5336 248.5,94.5 Z"/></g>
<g><path style="opacity:1" fill="#33191b" d="M 122.5,68.5 C 123.404,79.1351 123.737,89.8018 123.5,100.5C 122.672,94.0126 122.172,87.346 122,80.5C 121.825,85.0195 121.325,89.3528 120.5,93.5C 120.5,90.8333 120.5,88.1667 120.5,85.5C 120.216,79.5827 120.883,73.916 122.5,68.5 Z"/></g>
<g><path style="opacity:1" fill="#822526" d="M 142.5,79.5 C 145.145,81.2419 148.145,81.9086 151.5,81.5C 148.313,82.8056 144.98,82.8056 141.5,81.5C 141.863,80.8165 142.196,80.1499 142.5,79.5 Z"/></g>
<g><path style="opacity:1" fill="#c33131" d="M 151.5,81.5 C 148.145,81.9086 145.145,81.2419 142.5,79.5C 142.5,77.1667 142.5,74.8333 142.5,72.5C 142.072,68.0666 139.739,65.0666 135.5,63.5C 134.537,63.9698 134.537,64.6365 135.5,65.5C 134.167,65.1667 132.833,64.8333 131.5,64.5C 128.526,61.6908 125.859,62.0242 123.5,65.5C 122.89,66.391 122.557,67.391 122.5,68.5C 120.883,73.916 120.216,79.5827 120.5,85.5C 119.876,87.8337 119.043,90.1671 118,92.5C 117.667,89.5 117.333,86.5 117,83.5C 116.333,93.5 116.333,103.5 117,113.5C 117.573,108.674 118.073,103.841 118.5,99C 118.547,96.7047 119.213,94.8714 120.5,93.5C 120.208,99.9724 120.875,106.306 122.5,112.5C 122.42,120.279 123.253,127.946 125,135.5C 126.848,138.041 129.348,139.041 132.5,138.5C 134.379,138.393 134.712,138.893 133.5,140C 129.953,141.914 126.62,141.748 123.5,139.5C 122.365,140.103 121.365,140.436 120.5,140.5C 125.562,145.678 131.229,146.511 137.5,143C 137.167,142.667 136.833,142.333 136.5,142C 138.847,140.809 139.68,138.976 139,136.5C 137.959,138.311 136.793,138.645 135.5,137.5C 139.8,131.974 141.466,125.641 140.5,118.5C 141.482,115.038 141.815,111.371 141.5,107.5C 137.833,107.5 134.167,107.5 130.5,107.5C 129.186,102.652 129.186,97.6523 130.5,92.5C 139.03,91.1781 147.53,91.1781 156,92.5C 156.667,104.833 156.667,117.167 156,129.5C 153.183,146.824 143.016,154.991 125.5,154C 117.307,151.141 111.807,145.641 109,137.5C 107.391,116.209 107.057,94.8761 108,73.5C 110.619,54.8618 121.119,47.0285 139.5,50C 152.473,56.0452 157.806,66.2119 155.5,80.5C 154.041,80.4326 152.708,80.7659 151.5,81.5 Z"/></g>
<g><path style="opacity:1" fill="#732325" d="M 142.5,72.5 C 141.698,73.9516 141.198,75.6183 141,77.5C 140.571,72.752 138.738,68.752 135.5,65.5C 134.537,64.6365 134.537,63.9698 135.5,63.5C 139.739,65.0666 142.072,68.0666 142.5,72.5 Z"/></g>
<g><path style="opacity:1" fill="#361a1b" d="M 131.5,64.5 C 129.418,64.472 127.584,65.1387 126,66.5C 125.329,65.7476 124.496,65.4142 123.5,65.5C 125.859,62.0242 128.526,61.6908 131.5,64.5 Z"/></g>
<g><path style="opacity:1" fill="#652022" d="M 123.5,100.5 C 123.817,104.702 123.483,108.702 122.5,112.5C 120.875,106.306 120.208,99.9724 120.5,93.5C 121.325,89.3528 121.825,85.0195 122,80.5C 122.172,87.346 122.672,94.0126 123.5,100.5 Z"/></g>
<g><path style="opacity:1" fill="#7c2426" d="M 248.5,94.5 C 255.728,97.139 261.728,101.472 266.5,107.5C 265.784,107.783 264.951,108.116 264,108.5C 261.287,106.28 258.454,104.28 255.5,102.5C 254.395,101.4 253.062,100.733 251.5,100.5C 250.426,99.1154 249.093,97.9487 247.5,97C 247.884,96.0494 248.217,95.2161 248.5,94.5 Z"/></g>
<g><path style="opacity:1" fill="#a62b2c" d="M 312.5,90.5 C 311.549,91.9187 311.216,93.5853 311.5,95.5C 310.662,95.8417 310.328,96.5084 310.5,97.5C 309.833,102.5 309.167,107.5 308.5,112.5C 308.333,97.4963 308.5,82.4963 309,67.5C 309.635,75.3079 310.801,82.9745 312.5,90.5 Z"/></g>
<g><path style="opacity:1" fill="#802526" d="M 248.5,86.5 C 255.048,91.7916 262.048,96.6249 269.5,101C 271.041,102.371 272.375,103.871 273.5,105.5C 272.883,105.611 272.383,105.944 272,106.5C 265.062,100.227 257.562,94.7275 249.5,90C 248.663,88.9887 248.33,87.8221 248.5,86.5 Z"/></g>
<g><path style="opacity:1" fill="#922829" d="M 185.5,89.5 C 185.231,104.862 185.564,120.195 186.5,135.5C 185.849,134.909 185.182,134.243 184.5,133.5C 184.167,127.833 183.833,122.167 183.5,116.5C 183.362,107.288 184.029,98.2877 185.5,89.5 Z"/></g>
<g><path style="opacity:1" fill="#932829" d="M 120.5,85.5 C 120.5,88.1667 120.5,90.8333 120.5,93.5C 119.213,94.8714 118.547,96.7047 118.5,99C 118.073,103.841 117.573,108.674 117,113.5C 116.333,103.5 116.333,93.5 117,83.5C 117.333,86.5 117.667,89.5 118,92.5C 119.043,90.1671 119.876,87.8337 120.5,85.5 Z"/></g>
<g><path style="opacity:1" fill="#3f1b1d" d="M 130.5,107.5 C 134.167,107.5 137.833,107.5 141.5,107.5C 141.815,111.371 141.482,115.038 140.5,118.5C 140.5,115.167 140.5,111.833 140.5,108.5C 136.958,108.813 133.625,108.479 130.5,107.5 Z"/></g>
<g><path style="opacity:1" fill="#a12b2b" d="M 178.5,73.5 C 179.663,94.6627 179.829,115.996 179,137.5C 178.667,136.833 178.333,136.167 178,135.5C 177.667,136.833 177.333,138.167 177,139.5C 175.891,134.944 175.391,130.278 175.5,125.5C 175.667,121.5 175.833,117.5 176,113.5C 176.333,120.5 176.667,127.5 177,134.5C 177.347,114.159 177.847,93.826 178.5,73.5 Z"/></g>
<g><path style="opacity:1" fill="#9e292a" d="M 354.5,111.5 C 354.5,115.833 354.5,120.167 354.5,124.5C 353.778,124.918 353.278,125.584 353,126.5C 352.333,119.5 352.333,112.5 353,105.5C 353.191,107.708 353.691,109.708 354.5,111.5 Z"/></g>
<g><path style="opacity:1" fill="#241619" d="M 354.5,111.5 C 355.167,111.5 355.833,111.5 356.5,111.5C 356.826,119.684 356.492,127.684 355.5,135.5C 355.737,134.209 355.404,133.209 354.5,132.5C 354.5,129.833 354.5,127.167 354.5,124.5C 354.5,120.167 354.5,115.833 354.5,111.5 Z"/></g>
<g><path style="opacity:1" fill="#9e2a2a" d="M 381.5,109.5 C 382.176,114.685 383.176,119.185 384.5,123C 384.596,125.375 384.096,127.541 383,129.5C 382.819,126.305 382.319,123.305 381.5,120.5C 381.5,116.833 381.5,113.167 381.5,109.5 Z"/></g>
<g><path style="opacity:1" fill="#902829" d="M 120.5,125.5 C 120.5,127.167 120.5,128.833 120.5,130.5C 118.148,131.952 117.815,133.952 119.5,136.5C 119.154,137.696 118.654,137.696 118,136.5C 116.504,129.901 116.171,123.234 117,116.5C 117.388,120.219 118.055,123.886 119,127.5C 119.278,126.584 119.778,125.918 120.5,125.5 Z"/></g>
<g><path style="opacity:1" fill="#491c1e" d="M 356.5,111.5 C 357.329,118.321 357.829,125.321 358,132.5C 358.41,133.901 358.91,135.234 359.5,136.5C 358.5,136.833 357.833,137.5 357.5,138.5C 356.599,137.71 355.932,136.71 355.5,135.5C 356.492,127.684 356.826,119.684 356.5,111.5 Z"/></g>
<g><path style="opacity:1" fill="#892728" d="M 359.5,103.5 C 359.211,114.551 359.545,125.551 360.5,136.5C 360.167,136.5 359.833,136.5 359.5,136.5C 358.91,135.234 358.41,133.901 358,132.5C 357.829,125.321 357.329,118.321 356.5,111.5C 355.833,111.5 355.167,111.5 354.5,111.5C 354.183,108.428 354.516,105.428 355.5,102.5C 356.167,104.5 356.833,106.5 357.5,108.5C 358.17,106.709 358.837,105.042 359.5,103.5 Z"/></g>
<g><path style="opacity:1" fill="#b12e2e" d="M 374.5,116.5 C 375.653,122.319 375.819,128.319 375,134.5C 373.144,139.135 369.644,140.802 364.5,139.5C 364.167,139.5 363.833,139.5 363.5,139.5C 364.833,138.833 366.167,138.167 367.5,137.5C 369.39,137.703 370.89,137.037 372,135.5C 374.001,129.327 374.834,122.994 374.5,116.5 Z"/></g>
<g><path style="opacity:1" fill="#461d1e" d="M 120.5,130.5 C 120.5,128.833 120.5,127.167 120.5,125.5C 121.383,127.232 122.05,129.732 122.5,133C 122.333,133.5 122.167,134 122,134.5C 121.209,133.255 120.709,131.922 120.5,130.5 Z"/></g>
<g><path style="opacity:1" fill="#6b2223" d="M 378.5,134.5 C 377.277,137.398 375.277,139.731 372.5,141.5C 369.833,140.833 367.167,140.167 364.5,139.5C 369.644,140.802 373.144,139.135 375,134.5C 375.819,128.319 375.653,122.319 374.5,116.5C 374.5,103.167 374.5,89.8333 374.5,76.5C 375.328,82.9874 375.828,89.654 376,96.5C 376.333,89.1667 376.667,81.8333 377,74.5C 377.574,93.8566 377.574,113.19 377,132.5C 377.333,130.5 377.667,128.5 378,126.5C 378.497,129.146 378.664,131.813 378.5,134.5 Z"/></g>
<g><path style="opacity:1" fill="#9a292a" d="M 275.5,118.5 C 277.368,126.716 275.868,134.383 271,141.5C 272.691,133.939 274.191,126.272 275.5,118.5 Z"/></g>
<g><path style="opacity:1" fill="#962829" d="M 255.5,102.5 C 258.454,104.28 261.287,106.28 264,108.5C 264.951,108.116 265.784,107.783 266.5,107.5C 271.299,111.1 272.299,114.767 269.5,118.5C 273.237,125.157 273.07,131.824 269,138.5C 268.667,136.5 268.333,134.5 268,132.5C 267.117,135.102 265.617,137.269 263.5,139C 263.833,139.333 264.167,139.667 264.5,140C 263.167,141 261.833,142 260.5,143C 264.214,144.541 263.881,145.708 259.5,146.5C 259.5,145.5 259.5,144.5 259.5,143.5C 258.5,143.5 257.5,143.5 256.5,143.5C 256.762,144.978 256.429,146.311 255.5,147.5C 252.627,146.225 249.627,145.392 246.5,145C 247.833,144.333 247.833,143.667 246.5,143C 247.624,142.751 248.624,142.251 249.5,141.5C 248.998,140.284 248.665,139.117 248.5,138C 249.094,137.536 249.761,137.369 250.5,137.5C 253.852,138.707 257.186,138.707 260.5,137.5C 262.074,137.063 263.241,136.063 264,134.5C 269.264,121.628 266.097,111.461 254.5,104C 255.056,103.617 255.389,103.117 255.5,102.5 Z"/></g>
<g><path style="opacity:1" fill="#3d1b1c" d="M 375.5,142.5 C 375.062,142.565 374.728,142.399 374.5,142C 377.397,140.285 378.731,137.785 378.5,134.5C 379.314,132.369 379.814,130.036 380,127.5C 380.667,130.833 380.667,134.167 380,137.5C 379.004,139.66 377.504,141.327 375.5,142.5 Z"/></g>
<g><path style="opacity:1" fill="#7b2425" d="M 310.5,97.5 C 310.667,114.17 310.5,130.837 310,147.5C 309.683,149.301 309.016,149.634 308,148.5C 307.833,146.333 307.667,144.167 307.5,142C 308.311,132.183 308.644,122.349 308.5,112.5C 309.167,107.5 309.833,102.5 310.5,97.5 Z"/></g>
<g><path style="opacity:1" fill="#8c2728" d="M 312.5,90.5 C 312.168,103.184 312.501,115.851 313.5,128.5C 314.167,126.833 314.833,125.167 315.5,123.5C 316.377,132.195 316.044,140.861 314.5,149.5C 315.959,149.567 317.292,149.234 318.5,148.5C 318.785,150.288 318.452,151.955 317.5,153.5C 316.476,152.147 315.143,151.48 313.5,151.5C 311.513,133.197 310.846,114.53 311.5,95.5C 311.216,93.5853 311.549,91.9187 312.5,90.5 Z"/></g>
<g><path style="opacity:1" fill="#832526" d="M 382.5,132.5 C 383.55,137.483 381.883,141.649 377.5,145C 376.5,145.667 375.5,145.667 374.5,145C 379.568,142.363 382.235,138.196 382.5,132.5 Z"/></g>
<g><path style="opacity:1" fill="#ac2c2d" d="M 132.5,138.5 C 133.209,137.596 134.209,137.263 135.5,137.5C 136.793,138.645 137.959,138.311 139,136.5C 139.68,138.976 138.847,140.809 136.5,142C 136.833,142.333 137.167,142.667 137.5,143C 131.229,146.511 125.562,145.678 120.5,140.5C 121.365,140.436 122.365,140.103 123.5,139.5C 126.62,141.748 129.953,141.914 133.5,140C 134.712,138.893 134.379,138.393 132.5,138.5 Z"/></g>
<g><path style="opacity:1" fill="#842627" d="M 354.5,132.5 C 355.404,133.209 355.737,134.209 355.5,135.5C 355.932,136.71 356.599,137.71 357.5,138.5C 361.857,142.341 366.857,143.341 372.5,141.5C 375.277,139.731 377.277,137.398 378.5,134.5C 378.731,137.785 377.397,140.285 374.5,142C 374.728,142.399 375.062,142.565 375.5,142.5C 374.158,143.793 372.491,144.626 370.5,145C 371.5,145.333 372.5,145.667 373.5,146C 370.607,147.149 367.607,147.649 364.5,147.5C 364.5,146.5 364.5,145.5 364.5,144.5C 363.448,144.351 362.448,144.517 361.5,145C 362.696,145.654 362.696,146.154 361.5,146.5C 360.069,146.023 358.736,145.357 357.5,144.5C 357.709,143.914 358.043,143.414 358.5,143C 357,141.5 355.5,140 354,138.5C 353.51,136.455 353.677,134.455 354.5,132.5 Z"/></g>
<g><path style="opacity:1" fill="#1d1518" d="M 359.5,136.5 C 359.833,136.5 360.167,136.5 360.5,136.5C 360.81,138.144 361.81,139.144 363.5,139.5C 363.833,139.5 364.167,139.5 364.5,139.5C 367.167,140.167 369.833,140.833 372.5,141.5C 366.857,143.341 361.857,142.341 357.5,138.5C 357.833,137.5 358.5,136.833 359.5,136.5 Z"/></g>
<g><path style="opacity:1" fill="#622122" d="M 360.5,136.5 C 362.717,137.369 365.05,137.702 367.5,137.5C 366.167,138.167 364.833,138.833 363.5,139.5C 361.81,139.144 360.81,138.144 360.5,136.5 Z"/></g>
<g><path style="opacity:1" fill="#a02b2b" d="M 246.5,116.5 C 247.327,121.985 247.827,127.652 248,133.5C 248.662,134.984 249.496,136.317 250.5,137.5C 249.761,137.369 249.094,137.536 248.5,138C 248.665,139.117 248.998,140.284 249.5,141.5C 248.624,142.251 247.624,142.751 246.5,143C 247.833,143.667 247.833,144.333 246.5,145C 249.627,145.392 252.627,146.225 255.5,147.5C 256.429,146.311 256.762,144.978 256.5,143.5C 257.5,143.5 258.5,143.5 259.5,143.5C 259.5,144.5 259.5,145.5 259.5,146.5C 258.761,146.369 258.094,146.536 257.5,147C 258.5,147.333 259.5,147.667 260.5,148C 243.243,150.745 235.743,143.245 238,125.5C 238.629,129.006 239.629,132.34 241,135.5C 241.333,133.5 241.667,131.5 242,129.5C 242.333,132.167 242.667,134.833 243,137.5C 244.987,141.367 245.487,141.367 244.5,137.5C 246.226,130.624 246.892,123.624 246.5,116.5 Z"/></g>
<g><path style="opacity:1" fill="#551e20" d="M 180.5,151.5 C 185.885,152.244 191.218,153.244 196.5,154.5C 190.675,156.381 185.342,155.381 180.5,151.5 Z"/></g>
<g><path style="opacity:1" fill="#f7f8f8" d="M 288.5,200.5 C 288.25,201.922 287.417,202.922 286,203.5C 283.818,197.105 281.485,190.771 279,184.5C 278.5,185.5 278,186.5 277.5,187.5C 279.666,194.009 281.999,200.342 284.5,206.5C 285.022,209.253 285.856,211.92 287,214.5C 287.359,211.456 288.026,211.122 289,213.5C 289.483,212.552 289.649,211.552 289.5,210.5C 289.232,208.901 289.566,207.568 290.5,206.5C 291.842,208.361 292.842,210.361 293.5,212.5C 293.892,214.179 294.392,215.846 295,217.5C 297.341,213.14 298.841,208.473 299.5,203.5C 300.167,203.5 300.5,203.167 300.5,202.5C 302.167,197.167 303.833,191.833 305.5,186.5C 303.706,183.63 303.206,180.63 304,177.5C 303.221,180.097 302.721,180.097 302.5,177.5C 303.352,171.923 305.352,166.923 308.5,162.5C 311.167,162.5 313.833,162.5 316.5,162.5C 316.5,184.833 316.5,207.167 316.5,229.5C 316.5,232.5 316.5,235.5 316.5,238.5C 312.833,238.5 309.167,238.5 305.5,238.5C 305.198,235.941 305.532,233.607 306.5,231.5C 306.38,234.205 307.38,234.872 309.5,233.5C 310.666,217.51 310.833,201.51 310,185.5C 309.597,188.708 308.597,191.708 307,194.5C 306.828,200.681 306.328,206.681 305.5,212.5C 305.665,208.818 305.499,205.152 305,201.5C 304.209,202.745 303.709,204.078 303.5,205.5C 302.078,211.68 300.078,217.68 297.5,223.5C 294.833,223.833 292.167,224.167 289.5,224.5C 288.167,224.5 286.833,224.5 285.5,224.5C 284.296,217.226 282.296,210.226 279.5,203.5C 279.539,202.244 279.039,201.244 278,200.5C 277.667,205.833 277.333,211.167 277,216.5C 276.667,209.167 276.333,201.833 276,194.5C 275,191.167 274,187.833 273,184.5C 272.552,198.192 272.218,211.859 272,225.5C 272.099,223.347 272.933,221.681 274.5,220.5C 274.177,224.226 274.511,227.893 275.5,231.5C 276.298,231.043 276.631,230.376 276.5,229.5C 277.477,232.287 277.81,235.287 277.5,238.5C 276.833,238.5 276.5,238.833 276.5,239.5C 274.331,238.918 271.998,238.918 269.5,239.5C 268.791,238.596 267.791,238.263 266.5,238.5C 266.5,213.167 266.5,187.833 266.5,162.5C 269.777,162.216 272.943,162.549 276,163.5C 280.474,175.757 284.641,188.09 288.5,200.5 Z"/></g>
<g><path style="opacity:1" fill="#fafafa" d="M 337.5,162.5 C 339.476,187.272 340.142,212.272 339.5,237.5C 338.178,237.33 337.011,237.663 336,238.5C 335.667,237.833 335.333,237.167 335,236.5C 334.889,214.098 333.722,191.765 331.5,169.5C 330.505,175.128 330.171,180.794 330.5,186.5C 330.715,199.856 330.382,213.189 329.5,226.5C 328.56,211.606 328.227,190.606 328.5,163.5C 331.222,161.327 334.222,160.994 337.5,162.5 Z"/></g>
<g><path style="opacity:1" fill="#f1f1f1" d="M 382.5,220.5 C 381.778,220.918 381.278,221.584 381,222.5C 378.863,216.421 376.529,210.421 374,204.5C 373.131,207.33 371.964,209.997 370.5,212.5C 372,216.167 373.5,219.833 375,223.5C 375.333,221.5 375.667,219.5 376,217.5C 377.217,221.366 379.217,224.699 382,227.5C 382.333,226.167 382.667,224.833 383,223.5C 383.383,224.056 383.883,224.389 384.5,224.5C 387.297,229.099 388.631,234.099 388.5,239.5C 384.5,239.5 380.5,239.5 376.5,239.5C 376.167,237.5 375.833,235.5 375.5,233.5C 375.975,230.687 374.975,228.687 372.5,227.5C 371.941,224.157 370.608,221.157 368.5,218.5C 365.433,225.37 362.767,232.37 360.5,239.5C 356.486,239.666 352.486,239.499 348.5,239C 347.226,238.023 347.226,237.189 348.5,236.5C 349.791,236.737 350.791,236.404 351.5,235.5C 352.159,232.592 352.993,232.258 354,234.5C 355.474,231.244 356.64,227.911 357.5,224.5C 358.287,217.947 360.287,211.447 363.5,205C 363.333,204.5 363.167,204 363,203.5C 362,205.5 361,207.5 360,209.5C 359.536,208.906 359.369,208.239 359.5,207.5C 359.918,204.91 360.918,202.577 362.5,200.5C 357.954,189.246 353.287,178.079 348.5,167C 348.836,165.97 349.503,165.47 350.5,165.5C 351.117,165.389 351.617,165.056 352,164.5C 352.667,165.833 353.333,167.167 354,168.5C 356.918,177.229 360.251,185.895 364,194.5C 364.717,193.956 365.217,193.289 365.5,192.5C 366.159,190.862 366.826,189.195 367.5,187.5C 365.991,185.098 365.658,182.765 366.5,180.5C 367.158,181.398 367.824,182.398 368.5,183.5C 371.717,176.236 375.05,169.069 378.5,162C 381.5,161.333 384.5,161.333 387.5,162C 388.308,162.308 388.975,162.808 389.5,163.5C 384.28,175.944 379.613,188.611 375.5,201.5C 378.122,207.741 380.455,214.074 382.5,220.5 Z"/></g>
<g><path style="opacity:1" fill="#9ea0a1" d="M 337.5,162.5 C 338.5,162.5 339.5,162.5 340.5,162.5C 340.831,187.672 340.498,212.672 339.5,237.5C 340.142,212.272 339.476,187.272 337.5,162.5 Z"/></g>
<g><path style="opacity:1" fill="#dadbdb" d="M 353.5,162.5 C 356.365,162.055 358.865,162.722 361,164.5C 363.134,169.759 364.967,175.092 366.5,180.5C 365.658,182.765 365.991,185.098 367.5,187.5C 366.826,189.195 366.159,190.862 365.5,192.5C 363.901,191.201 363.401,189.535 364,187.5C 364.556,189.595 365.056,189.762 365.5,188C 363.46,182.047 361.127,176.214 358.5,170.5C 357.675,169.614 356.675,169.281 355.5,169.5C 355.122,167.079 354.455,164.746 353.5,162.5 Z"/></g>
<g><path style="opacity:1" fill="#828385" d="M 308.5,162.5 C 311.287,161.523 314.287,161.19 317.5,161.5C 317.5,184.167 317.5,206.833 317.5,229.5C 317.167,229.5 316.833,229.5 316.5,229.5C 316.5,207.167 316.5,184.833 316.5,162.5C 313.833,162.5 311.167,162.5 308.5,162.5 Z"/></g>
<g><path style="opacity:1" fill="#b1b1b2" d="M 353.5,162.5 C 354.455,164.746 355.122,167.079 355.5,169.5C 356.675,169.281 357.675,169.614 358.5,170.5C 361.127,176.214 363.46,182.047 365.5,188C 365.056,189.762 364.556,189.595 364,187.5C 363.401,189.535 363.901,191.201 365.5,192.5C 365.217,193.289 364.717,193.956 364,194.5C 360.251,185.895 356.918,177.229 354,168.5C 353.333,167.167 352.667,165.833 352,164.5C 351.617,165.056 351.117,165.389 350.5,165.5C 350.81,163.856 351.81,162.856 353.5,162.5 Z"/></g>
<g><path style="opacity:1" fill="#686a6c" d="M 328.5,163.5 C 328.227,190.606 328.56,211.606 329.5,226.5C 331.045,225.77 331.878,224.437 332,222.5C 332.495,224.473 332.662,226.473 332.5,228.5C 331.431,232.242 331.431,235.575 332.5,238.5C 331.359,237.661 330.026,236.994 328.5,236.5C 327.171,212.003 327.171,187.67 328.5,163.5 Z"/></g>
<g><path style="opacity:1" fill="#e4e4e4" d="M 302.5,177.5 C 302.721,180.097 303.221,180.097 304,177.5C 303.206,180.63 303.706,183.63 305.5,186.5C 303.441,189.611 301.608,192.944 300,196.5C 299.211,198.712 299.378,200.712 300.5,202.5C 300.5,203.167 300.167,203.5 299.5,203.5C 298.229,206.968 296.229,209.968 293.5,212.5C 292.842,210.361 291.842,208.361 290.5,206.5C 291.497,206.53 292.164,206.03 292.5,205C 295.371,195.544 298.704,186.377 302.5,177.5 Z"/></g>
<g><path style="opacity:1" fill="#919293" d="M 305.5,186.5 C 303.833,191.833 302.167,197.167 300.5,202.5C 299.378,200.712 299.211,198.712 300,196.5C 301.608,192.944 303.441,189.611 305.5,186.5 Z"/></g>
<g><path style="opacity:1" fill="#dcdcdc" d="M 288.5,200.5 C 289.738,202.214 290.405,204.214 290.5,206.5C 289.566,207.568 289.232,208.901 289.5,210.5C 288.778,210.082 288.278,209.416 288,208.5C 287.667,209.167 287.333,209.833 287,210.5C 286.8,208.68 285.966,207.347 284.5,206.5C 281.999,200.342 279.666,194.009 277.5,187.5C 278,186.5 278.5,185.5 279,184.5C 281.485,190.771 283.818,197.105 286,203.5C 287.417,202.922 288.25,201.922 288.5,200.5 Z"/></g>
<g><path style="opacity:1" fill="#c7c8c8" d="M 279.5,203.5 C 278.833,215.167 278.167,226.833 277.5,238.5C 277.81,235.287 277.477,232.287 276.5,229.5C 276.607,223.12 276.107,216.787 275,210.5C 274.502,213.817 274.335,217.15 274.5,220.5C 272.933,221.681 272.099,223.347 272,225.5C 272.218,211.859 272.552,198.192 273,184.5C 274,187.833 275,191.167 276,194.5C 276.333,201.833 276.667,209.167 277,216.5C 277.333,211.167 277.667,205.833 278,200.5C 279.039,201.244 279.539,202.244 279.5,203.5 Z"/></g>
<g><path style="opacity:1" fill="#969798" d="M 330.5,186.5 C 331.586,186.62 332.253,187.287 332.5,188.5C 332.322,201.987 332.322,215.32 332.5,228.5C 332.662,226.473 332.495,224.473 332,222.5C 331.878,224.437 331.045,225.77 329.5,226.5C 330.382,213.189 330.715,199.856 330.5,186.5 Z"/></g>
<g><path style="opacity:1" fill="#9d9e9f" d="M 284.5,206.5 C 285.966,207.347 286.8,208.68 287,210.5C 287.333,209.833 287.667,209.167 288,208.5C 288.278,209.416 288.778,210.082 289.5,210.5C 289.649,211.552 289.483,212.552 289,213.5C 288.026,211.122 287.359,211.456 287,214.5C 285.856,211.92 285.022,209.253 284.5,206.5 Z"/></g>
<g><path style="opacity:1" fill="#9c9d9e" d="M 299.5,203.5 C 298.841,208.473 297.341,213.14 295,217.5C 294.392,215.846 293.892,214.179 293.5,212.5C 296.229,209.968 298.229,206.968 299.5,203.5 Z"/></g>
<g><path style="opacity:1" fill="#d6d6d6" d="M 339.5,237.5 C 338.688,238.993 337.355,239.66 335.5,239.5C 334.274,239.48 333.274,239.147 332.5,238.5C 331.431,235.575 331.431,232.242 332.5,228.5C 332.322,215.32 332.322,201.987 332.5,188.5C 332.253,187.287 331.586,186.62 330.5,186.5C 330.171,180.794 330.505,175.128 331.5,169.5C 333.722,191.765 334.889,214.098 335,236.5C 335.333,237.167 335.667,237.833 336,238.5C 337.011,237.663 338.178,237.33 339.5,237.5 Z"/></g>
<g><path style="opacity:1" fill="#a7a8a9" d="M 276.5,229.5 C 276.631,230.376 276.298,231.043 275.5,231.5C 274.511,227.893 274.177,224.226 274.5,220.5C 274.335,217.15 274.502,213.817 275,210.5C 276.107,216.787 276.607,223.12 276.5,229.5 Z"/></g>
<g><path style="opacity:1" fill="#c9caca" d="M 382.5,220.5 C 383.674,221.514 384.34,222.847 384.5,224.5C 383.883,224.389 383.383,224.056 383,223.5C 382.667,224.833 382.333,226.167 382,227.5C 379.217,224.699 377.217,221.366 376,217.5C 375.667,219.5 375.333,221.5 375,223.5C 373.5,219.833 372,216.167 370.5,212.5C 371.964,209.997 373.131,207.33 374,204.5C 376.529,210.421 378.863,216.421 381,222.5C 381.278,221.584 381.778,220.918 382.5,220.5 Z"/></g>
<g><path style="opacity:1" fill="#585a5c" d="M 297.5,223.5 C 295.007,225.584 292.34,225.917 289.5,224.5C 292.167,224.167 294.833,223.833 297.5,223.5 Z"/></g>
<g><path style="opacity:1" fill="#cdcdce" d="M 357.5,224.5 C 356.778,224.918 356.278,225.584 356,226.5C 355.667,225.5 355.333,224.5 355,223.5C 353.598,227.207 352.098,230.874 350.5,234.5C 350.624,235.107 350.957,235.44 351.5,235.5C 350.791,236.404 349.791,236.737 348.5,236.5C 351.586,226.57 355.253,216.903 359.5,207.5C 359.369,208.239 359.536,208.906 360,209.5C 361,207.5 362,205.5 363,203.5C 363.167,204 363.333,204.5 363.5,205C 360.287,211.447 358.287,217.947 357.5,224.5 Z"/></g>
<g><path style="opacity:1" fill="#757778" d="M 306.5,231.5 C 306.158,230.662 305.492,230.328 304.5,230.5C 304.826,221.983 304.493,213.65 303.5,205.5C 303.709,204.078 304.209,202.745 305,201.5C 305.499,205.152 305.665,208.818 305.5,212.5C 305.338,214.527 305.505,216.527 306,218.5C 307.139,212.564 307.805,206.564 308,200.5C 308.221,205.22 308.721,209.887 309.5,214.5C 308.689,215.216 308.022,216.05 307.5,217C 309.396,220.286 309.896,223.786 309,227.5C 308.8,229.32 307.966,230.653 306.5,231.5 Z"/></g>
<g><path style="opacity:1" fill="#c3c4c4" d="M 306.5,231.5 C 307.966,230.653 308.8,229.32 309,227.5C 309.896,223.786 309.396,220.286 307.5,217C 308.022,216.05 308.689,215.216 309.5,214.5C 308.721,209.887 308.221,205.22 308,200.5C 307.805,206.564 307.139,212.564 306,218.5C 305.505,216.527 305.338,214.527 305.5,212.5C 306.328,206.681 306.828,200.681 307,194.5C 308.597,191.708 309.597,188.708 310,185.5C 310.833,201.51 310.666,217.51 309.5,233.5C 307.38,234.872 306.38,234.205 306.5,231.5 Z"/></g>
<g><path style="opacity:1" fill="#898a8c" d="M 357.5,224.5 C 356.64,227.911 355.474,231.244 354,234.5C 352.993,232.258 352.159,232.592 351.5,235.5C 350.957,235.44 350.624,235.107 350.5,234.5C 352.098,230.874 353.598,227.207 355,223.5C 355.333,224.5 355.667,225.5 356,226.5C 356.278,225.584 356.778,224.918 357.5,224.5 Z"/></g>
<g><path style="opacity:1" fill="#9fa0a1" d="M 372.5,227.5 C 374.975,228.687 375.975,230.687 375.5,233.5C 373.755,231.967 372.755,229.967 372.5,227.5 Z"/></g>
<g><path style="opacity:1" fill="#b9babb" d="M 316.5,229.5 C 316.833,229.5 317.167,229.5 317.5,229.5C 317.5,232.833 317.5,236.167 317.5,239.5C 313.167,239.5 308.833,239.5 304.5,239.5C 304.5,236.5 304.5,233.5 304.5,230.5C 305.492,230.328 306.158,230.662 306.5,231.5C 305.532,233.607 305.198,235.941 305.5,238.5C 309.167,238.5 312.833,238.5 316.5,238.5C 316.5,235.5 316.5,232.5 316.5,229.5 Z"/></g>
<g><path style="opacity:1" fill="#848687" d="M 276.5,239.5 C 274.167,240.833 271.833,240.833 269.5,239.5C 271.998,238.918 274.331,238.918 276.5,239.5 Z"/></g>
</svg>
